999
"DXF R12 Output" (www.mydxf.blogspot.com)
 0 
SECTION
 2 
HEADER
 9 
$ACADVER
 1 
AC1009
 9 
$EXTMIN
 10 
 0 
 20 
 0 
 9 
$EXTMAX
 10 
 8.5 
 20 
 11 
 0 
ENDSEC
 0 
SECTION
 2 
ENTITIES
0
LINE
8
Layer 1
10
167.368000
20
-4.560910
11
167.368000
21
-22.376200
0
LINE
8
Layer 1
10
167.368000
20
-22.376200
11
158.548560
21
-22.376200
0
LINE
8
Layer 1
10
158.548560
20
-22.376200
11
149.729110
21
-22.376200
0
LINE
8
Layer 1
10
149.729110
20
-22.376200
11
149.729110
21
-4.737300
0
LINE
8
Layer 1
10
149.729110
20
-4.737300
11
149.729110
21
12.901600
0
LINE
8
Layer 1
10
149.729110
20
12.901600
11
142.673560
21
12.901600
0
LINE
8
Layer 1
10
142.673560
20
12.901600
11
135.618000
21
12.901600
0
LINE
8
Layer 1
10
135.618000
20
12.901600
11
135.618000
21
-10.910900
0
LINE
8
Layer 1
10
135.618000
20
-10.910900
11
135.618000
21
-34.723400
0
LINE
8
Layer 1
10
135.618000
20
-34.723400
11
174.247200
21
-34.723400
0
LINE
8
Layer 1
10
174.247200
20
-34.723400
11
212.876400
21
-34.723400
0
LINE
8
Layer 1
10
212.876400
20
-34.723400
11
212.876400
21
-10.910900
0
LINE
8
Layer 1
10
212.876400
20
-10.910900
11
212.876400
21
12.901600
0
LINE
8
Layer 1
10
212.876400
20
12.901600
11
205.997240
21
12.901600
0
LINE
8
Layer 1
10
205.997240
20
12.901600
11
199.118070
21
12.901600
0
LINE
8
Layer 1
10
199.118070
20
12.901600
11
199.118070
21
-4.737300
0
LINE
8
Layer 1
10
199.118070
20
-4.737300
11
199.118070
21
-22.376200
0
LINE
8
Layer 1
10
199.118070
20
-22.376200
11
190.298630
21
-22.376200
0
LINE
8
Layer 1
10
190.298630
20
-22.376200
11
181.479180
21
-22.376200
0
LINE
8
Layer 1
10
181.479180
20
-22.376200
11
181.479180
21
-4.560910
0
LINE
8
Layer 1
10
181.479180
20
-4.560910
11
181.479180
21
13.254400
0
LINE
8
Layer 1
10
181.479180
20
13.254400
11
174.423630
21
13.254400
0
LINE
8
Layer 1
10
174.423630
20
13.254400
11
167.368070
21
13.254400
0
LINE
8
Layer 1
10
167.368070
20
13.254400
11
167.368000
21
-4.560910
0
LINE
8
Layer 1
10
-107.446000
20
-17.790100
11
-107.446000
21
-48.481800
0
LINE
8
Layer 1
10
-107.446000
20
-48.481800
11
-100.390440
21
-48.481800
0
LINE
8
Layer 1
10
-100.390440
20
-48.481800
11
-93.334890
21
-48.481800
0
LINE
8
Layer 1
10
-93.334890
20
-48.481800
11
-93.334890
21
-41.602630
0
LINE
8
Layer 1
10
-93.334890
20
-41.602630
11
-93.334890
21
-34.723460
0
LINE
8
Layer 1
10
-93.334890
20
-34.723460
11
-61.584890
21
-34.723460
0
LINE
8
Layer 1
10
-61.584890
20
-34.723460
11
-29.834890
21
-34.723460
0
LINE
8
Layer 1
10
-29.834890
20
-34.723460
11
-29.834890
21
-10.910960
0
LINE
8
Layer 1
10
-29.834890
20
-10.910960
11
-29.834890
21
12.901540
0
LINE
8
Layer 1
10
-29.834890
20
12.901540
11
-36.890450
21
12.901540
0
LINE
8
Layer 1
10
-36.890450
20
12.901540
11
-43.946010
21
12.901540
0
LINE
8
Layer 1
10
-43.946010
20
12.901540
11
-43.946010
21
-4.737300
0
LINE
8
Layer 1
10
-43.946010
20
-4.737300
11
-43.946010
21
-22.376200
0
LINE
8
Layer 1
10
-43.946010
20
-22.376200
11
-68.640500
21
-22.376200
0
LINE
8
Layer 1
10
-68.640500
20
-22.376200
11
-93.334900
21
-22.376200
0
LINE
8
Layer 1
10
-93.334900
20
-22.376200
11
-93.334900
21
-4.737300
0
LINE
8
Layer 1
10
-93.334900
20
-4.737300
11
-93.334900
21
12.901600
0
LINE
8
Layer 1
10
-93.334900
20
12.901600
11
-100.390450
21
12.901600
0
LINE
8
Layer 1
10
-100.390450
20
12.901600
11
-107.446010
21
12.901600
0
LINE
8
Layer 1
10
-107.446010
20
12.901600
11
-107.446000
21
-17.790100
0
LINE
8
Layer 1
10
-27.012700
20
-10.910930
11
-27.012700
21
-34.723400
0
LINE
8
Layer 1
10
-27.012700
20
-34.723400
11
11.792900
21
-34.723400
0
LINE
8
Layer 1
10
11.792900
20
-34.723400
11
50.598500
21
-34.723400
0
LINE
8
Layer 1
10
50.598500
20
-34.723400
11
50.598500
21
-19.730300
0
LINE
8
Layer 1
10
50.598500
20
-19.730300
11
50.598500
21
-4.737200
0
LINE
8
Layer 1
10
50.598500
20
-4.737200
11
18.848500
21
-4.737200
0
LINE
8
Layer 1
10
18.848500
20
-4.737200
11
-12.901500
21
-4.737200
0
LINE
8
Layer 1
10
-12.901500
20
-4.737200
11
-12.901500
21
-2.091370
0
LINE
8
Layer 1
10
-12.901500
20
-2.091370
11
-12.901500
21
0.554460
0
LINE
8
Layer 1
10
-12.901500
20
0.554460
11
18.848500
21
0.554460
0
LINE
8
Layer 1
10
18.848500
20
0.554460
11
50.598500
21
0.554460
0
LINE
8
Layer 1
10
50.598500
20
0.554460
11
50.598500
21
6.727980
0
LINE
8
Layer 1
10
50.598500
20
6.727980
11
50.598500
21
12.901600
0
LINE
8
Layer 1
10
50.598500
20
12.901600
11
11.792900
21
12.901600
0
LINE
8
Layer 1
10
11.792900
20
12.901600
11
-27.012700
21
12.901600
0
LINE
8
Layer 1
10
-27.012700
20
12.901600
11
-27.012700
21
-10.910930
0
LINE
8
Layer 1
10
36.487300
20
-19.730400
11
36.487300
21
-22.376230
0
LINE
8
Layer 1
10
36.487300
20
-22.376230
11
11.792900
21
-22.376230
0
LINE
8
Layer 1
10
11.792900
20
-22.376230
11
-12.901600
21
-22.376230
0
LINE
8
Layer 1
10
-12.901600
20
-22.376230
11
-12.901600
21
-19.730400
0
LINE
8
Layer 1
10
-12.901600
20
-19.730400
11
-12.901600
21
-17.084570
0
LINE
8
Layer 1
10
-12.901600
20
-17.084570
11
11.792900
21
-17.084570
0
LINE
8
Layer 1
10
11.792900
20
-17.084570
11
36.487300
21
-17.084570
0
LINE
8
Layer 1
10
36.487300
20
-17.084570
11
36.487300
21
-19.730400
0
LINE
8
Layer 1
10
54.126200
20
-10.910960
11
54.126200
21
-34.723400
0
LINE
8
Layer 1
10
54.126200
20
-34.723400
11
92.931700
21
-34.723400
0
LINE
8
Layer 1
10
92.931700
20
-34.723400
11
131.737000
21
-34.723400
0
LINE
8
Layer 1
10
131.737000
20
-34.723400
11
131.737000
21
-28.549790
0
LINE
8
Layer 1
10
131.737000
20
-28.549790
11
131.737000
21
-22.376180
0
LINE
8
Layer 1
10
131.737000
20
-22.376180
11
99.987300
21
-22.376180
0
LINE
8
Layer 1
10
99.987300
20
-22.376180
11
68.237300
21
-22.376180
0
LINE
8
Layer 1
10
68.237300
20
-22.376180
11
68.237300
21
-4.737300
0
LINE
8
Layer 1
10
68.237300
20
-4.737300
11
68.237300
21
12.901600
0
LINE
8
Layer 1
10
68.237300
20
12.901600
11
61.181740
21
12.901600
0
LINE
8
Layer 1
10
61.181740
20
12.901600
11
54.126180
21
12.901600
0
LINE
8
Layer 1
10
54.126180
20
12.901600
11
54.126200
21
-10.910960
0
LINE
8
Layer 1
10
216.051200
20
-10.910960
11
216.051200
21
-34.723400
0
LINE
8
Layer 1
10
216.051200
20
-34.723400
11
223.106760
21
-34.723400
0
LINE
8
Layer 1
10
223.106760
20
-34.723400
11
230.162310
21
-34.723400
0
LINE
8
Layer 1
10
230.162310
20
-34.723400
11
230.162310
21
-10.910900
0
LINE
8
Layer 1
10
230.162310
20
-10.910900
11
230.162310
21
12.901600
0
LINE
8
Layer 1
10
230.162310
20
12.901600
11
223.106760
21
12.901600
0
LINE
8
Layer 1
10
223.106760
20
12.901600
11
216.051200
21
12.901600
0
LINE
8
Layer 1
10
216.051200
20
12.901600
11
216.051200
21
-10.910960
0
LINE
8
Layer 1
10
234.395600
20
-17.966520
11
234.395600
21
-48.834500
0
LINE
8
Layer 1
10
234.395600
20
-48.834500
11
241.451150
21
-48.834500
0
LINE
8
Layer 1
10
241.451150
20
-48.834500
11
248.506710
21
-48.834500
0
LINE
8
Layer 1
10
248.506710
20
-48.834500
11
248.506710
21
-41.955330
0
LINE
8
Layer 1
10
248.506710
20
-41.955330
11
248.506710
21
-35.076160
0
LINE
8
Layer 1
10
248.506710
20
-35.076160
11
280.080310
21
-35.076160
0
LINE
8
Layer 1
10
280.080310
20
-35.076160
11
311.653910
21
-35.076160
0
LINE
8
Layer 1
10
311.653910
20
-35.076160
11
311.653910
21
-28.902550
0
LINE
8
Layer 1
10
311.653910
20
-28.902550
11
311.653910
21
-22.728940
0
LINE
8
Layer 1
10
311.653910
20
-22.728940
11
280.080000
21
-22.728940
0
LINE
8
Layer 1
10
280.080000
20
-22.728940
11
248.507000
21
-22.728940
0
LINE
8
Layer 1
10
248.507000
20
-22.728940
11
248.507000
21
-11.263700
0
LINE
8
Layer 1
10
248.507000
20
-11.263700
11
248.507000
21
0.201587
0
LINE
8
Layer 1
10
248.507000
20
0.201587
11
280.080600
21
0.201587
0
LINE
8
Layer 1
10
280.080600
20
0.201587
11
311.654200
21
0.201587
0
LINE
8
Layer 1
10
311.654200
20
0.201587
11
311.654200
21
6.551587
0
LINE
8
Layer 1
10
311.654200
20
6.551587
11
311.654200
21
12.901587
0
LINE
8
Layer 1
10
311.654200
20
12.901587
11
273.025000
21
12.901587
0
LINE
8
Layer 1
10
273.025000
20
12.901587
11
234.395800
21
12.901587
0
LINE
8
Layer 1
10
234.395800
20
12.901587
11
234.395600
21
-17.966520
0
LINE
8
Layer 1
10
216.051200
20
-43.013720
11
216.051200
21
-48.834550
0
LINE
8
Layer 1
10
216.051200
20
-48.834550
11
223.106760
21
-48.834550
0
LINE
8
Layer 1
10
223.106760
20
-48.834550
11
230.162310
21
-48.834550
0
LINE
8
Layer 1
10
230.162310
20
-48.834550
11
230.162310
21
-43.013720
0
LINE
8
Layer 1
10
230.162310
20
-43.013720
11
230.162310
21
-37.192890
0
LINE
8
Layer 1
10
230.162310
20
-37.192890
11
223.106760
21
-37.192890
0
LINE
8
Layer 1
10
223.106760
20
-37.192890
11
216.051200
21
-37.192890
0
LINE
8
Layer 1
10
216.051200
20
-37.192890
11
216.051200
21
-43.013720
 0 
ENDSEC
 0 
EOF